<?xml version="1.0" encoding="utf-8" standalone="no"?>
<!DOCTYPE svg PUBLIC "-//W3C//DTD SVG 1.1//EN"
  "http://www.w3.org/Graphics/SVG/1.1/DTD/svg11.dtd">
<svg xmlns:xlink="http://www.w3.org/1999/xlink" width="568.444062pt" height="207.961962pt" viewBox="0 0 568.444062 207.961962" xmlns="http://www.w3.org/2000/svg" version="1.1">
 <defs><style type="text/css">*{stroke-linejoin: round; stroke-linecap: butt}</style></defs>
 <g id="figure_1">
  <g id="patch_1"><path d="M 0 207.961962 L 568.444062 207.961962 L 568.444062 0 L 0 0 z" style="fill: #ffffff"/></g>
  <g id="axes_1">
   <g id="patch_2"><path d="M 56.364063 199.651478 L 561.244062 199.651478 L 561.244062 21.558281 L 56.364063 21.558281 z" style="fill: #ffffff"/></g>
   <polygon points="79.313153,29.653427 95.140113,29.653427 110.967072,29.653427 126.794031,29.653427 142.62099,29.653427 158.44795,29.653427 174.274909,29.653427 190.101868,29.653427 205.928827,52.202505 221.755787,53.845656 237.582746,63.394715 253.409705,69.477098 269.236664,29.653427 285.063624,59.499798 300.890583,112.410002 316.717542,105.612143 332.544501,130.837713 348.371461,119.25098 364.19842,132.006759 380.025379,185.415568 395.852338,160.842389 411.679298,162.667985 427.506257,171.846937 443.333216,145.365451 459.160175,147.25586 474.987135,156.099121 490.814094,182.47627 506.641053,164.679711 522.468012,181.947613 538.294972,143.963114 538.294972,29.653427 522.468012,29.653427 506.641053,29.653427 490.814094,29.653427 474.987135,29.653427 459.160175,29.653427 443.333216,29.653427 427.506257,29.653427 411.679298,29.653427 395.852338,29.653427 380.025379,29.653427 364.19842,29.653427 348.371461,29.653427 332.544501,29.653427 316.717542,29.653427 300.890583,29.653427 285.063624,29.653427 269.236664,29.653427 253.409705,29.653427 237.582746,29.653427 221.755787,29.653427 205.928827,29.653427 190.101868,29.653427 174.274909,29.653427 158.44795,29.653427 142.62099,29.653427 126.794031,29.653427 110.967072,29.653427 95.140113,29.653427 79.313153,29.653427" style="fill:#d32f2f;fill-opacity:0.6;stroke:#d32f2f;stroke-opacity:0.6"/>
   <g id="matplotlib.axis_2">
    <text style="font-size:10px;text-anchor:end" x="49.364063" y="198.682274">£-60k</text>
    <text style="font-size:10px;text-anchor:end" x="49.364063" y="171.144003">£-50k</text>
    <text style="font-size:10px;text-anchor:end" x="49.364063" y="143.605731">£-40k</text>
    <text style="font-size:10px;text-anchor:end" x="49.364063" y="116.06746">£-30k</text>
    <text style="font-size:10px;text-anchor:end" x="49.364063" y="88.529188">£-20k</text>
    <text style="font-size:10px;text-anchor:end" x="49.364063" y="60.990917">£-10k</text>
    <text style="font-size:10px;text-anchor:end" x="49.364063" y="33.452645">£0k</text>
    <text style="font-size:10px;text-anchor:middle" x="14.798438" y="110.60488" transform="rotate(-90 14.798438 110.60488)">Drawdown</text>
   </g>
   <text style="font-size:11px;text-anchor:middle" x="308.804062" y="15.558281">30-Day Rolling Drawdown (Synthetic Demo)</text>
  </g>
 </g>
 <defs><clipPath id="clip_rat_dd"><rect x="56.364063" y="21.558281" width="504.88" height="178.093197"/></clipPath></defs>
</svg>