<?xml version="1.0" encoding="utf-8" standalone="no"?>
<!DOCTYPE svg PUBLIC "-//W3C//DTD SVG 1.1//EN"
  "http://www.w3.org/Graphics/SVG/1.1/DTD/svg11.dtd">
<svg xmlns:xlink="http://www.w3.org/1999/xlink" width="712.272969pt" height="350.786563pt" viewBox="0 0 712.272969 350.786563" xmlns="http://www.w3.org/2000/svg" version="1.1">
 <defs>
  <style type="text/css">*{stroke-linejoin: round; stroke-linecap: butt}</style>
 </defs>
 <g id="figure_1">
  <g id="patch_1">
   <path d="M 0 350.786563 
L 712.272969 350.786563 
L 712.272969 0 
L 0 0 
z
" style="fill: #ffffff"/>
  </g>
  <g id="axes_1">
   <g id="patch_2">
    <path d="M 68.342969 314.198125 
L 705.072969 314.198125 
L 705.072969 26.318125 
L 68.342969 26.318125 
z
" style="fill: #fafafa"/>
   </g>
   <g id="FillBetweenPolyCollection_1">
    <defs>
     <path id="m83e8a096ee" d="M 78.955135 -311.382983 
L 78.955135 -311.382983 
L 100.179469 -311.382983 
L 121.403802 -311.382983 
L 142.628135 -311.382983 
L 163.852469 -304.852012 
L 185.076802 -273.014951 
L 206.301135 -311.382983 
L 227.525469 -311.382983 
L 248.749802 -258.314417 
L 269.974135 -261.572294 
L 291.198469 -222.145221 
L 312.422802 -212.208608 
L 333.647135 -232.316545 
L 354.871469 -125.006133 
L 376.095802 -93.214635 
L 397.320135 -95.829253 
L 418.544469 -88.544653 
L 439.768802 -133.065938 
L 460.993135 -115.515316 
L 482.217469 -49.673892 
L 503.441802 -60.047578 
L 524.666135 -54.681558 
L 545.890469 -54.551435 
L 567.114802 -82.416732 
L 588.339135 -75.280919 
L 609.563469 -98.165468 
L 630.787802 -51.200852 
L 652.012135 -63.698857 
L 673.236469 -77.275197 
L 694.460802 -185.054137 
L 694.460802 -311.382983 
L 694.460802 -311.382983 
L 673.236469 -311.382983 
L 652.012135 -311.382983 
L 630.787802 -311.382983 
L 609.563469 -311.382983 
L 588.339135 -311.382983 
L 567.114802 -311.382983 
L 545.890469 -311.382983 
L 524.666135 -311.382983 
L 503.441802 -311.382983 
L 482.217469 -311.382983 
L 460.993135 -311.382983 
L 439.768802 -311.382983 
L 418.544469 -311.382983 
L 397.320135 -311.382983 
L 376.095802 -311.382983 
L 354.871469 -311.382983 
L 333.647135 -311.382983 
L 312.422802 -311.382983 
L 291.198469 -311.382983 
L 269.974135 -311.382983 
L 248.749802 -311.382983 
L 227.525469 -311.382983 
L 206.301135 -311.382983 
L 185.076802 -311.382983 
L 163.852469 -311.382983 
L 142.628135 -311.382983 
L 121.403802 -311.382983 
L 100.179469 -311.382983 
L 78.955135 -311.382983 
z
"/>
    </defs>
    <g clip-path="url(#p9cc45bd11b)">
     <use xlink:href="#m83e8a096ee" x="0" y="350.786563" style="fill: #c62828; fill-opacity: 0.35"/>
    </g>
   </g>
   <g id="line2d_25">
    <path d="M 78.955135 39.40358 
L 100.179469 39.40358 
L 121.403802 39.40358 
L 142.628135 39.40358 
L 163.852469 45.934551 
L 185.076802 77.771611 
L 206.301135 39.40358 
L 227.525469 39.40358 
L 248.749802 92.472146 
L 269.974135 89.214268 
L 291.198469 128.641341 
L 312.422802 138.577954 
L 333.647135 118.470017 
L 354.871469 225.780429 
L 376.095802 257.571928 
L 397.320135 254.95731 
L 418.544469 262.24191 
L 439.768802 217.720624 
L 460.993135 235.271246 
L 482.217469 301.11267 
L 503.441802 290.738985 
L 524.666135 296.105005 
L 545.890469 296.235127 
L 567.114802 268.369831 
L 588.339135 275.505643 
L 609.563469 252.621095 
L 630.787802 299.58571 
L 652.012135 287.087705 
L 673.236469 273.511365 
L 694.460802 165.732425 
" clip-path="url(#p9cc45bd11b)" style="fill: none; stroke: #c62828; stroke-width: 1.5; stroke-linecap: square"/>
   </g>
   <g id="line2d_26">
    <path d="M 68.342969 39.40358 
L 705.072969 39.40358 
" clip-path="url(#p9cc45bd11b)" style="fill: none; stroke-dasharray: 3.7,1.6; stroke-dashoffset: 0; stroke: #546e7a; stroke-opacity: 0.6"/>
   </g>
   <g id="patch_5">
    <path d="M 578.979325 201.730736 
Q 531.296766 250.704423 484.706123 298.556629 
" style="fill: none; stroke: #c62828; stroke-width: 1.4; stroke-linecap: round"/>
    <path d="M 488.507159 297.232949 
L 484.706123 298.556629 
L 485.927801 294.721593 
" style="fill: none; stroke: #c62828; stroke-width: 1.4; stroke-linecap: round"/>
   </g>
   <g id="text_15">
    <text style="font-weight: 700; font-size: 9px; font-family: DejaVu Sans, sans-serif; text-anchor: start; fill: #c62828" x="545.890469" y="196.429034">Worst: £-48,908</text>
   </g>
   <g id="text_16">
    <text style="font-weight: 700; font-size: 12px; font-family: DejaVu Sans, sans-serif; text-anchor: middle" x="386.707969" y="16.318125">Portfolio Drawdown — 30-Day Window (Synthetic Demo)</text>
   </g>
   <g id="text_7">
    <text style="font-size: 10px; font-family: DejaVu Sans, sans-serif; text-anchor: middle" x="386.707969" y="341.506875">Trading Day</text>
   </g>
   <g id="text_14">
    <text style="font-size: 10px; font-family: DejaVu Sans, sans-serif; text-anchor: middle" x="14.798438" y="170.258125" transform="rotate(-90 14.798438 170.258125)">Drawdown (£)</text>
   </g>
  </g>
 </g>
 <defs>
  <clipPath id="p9cc45bd11b">
   <rect x="68.342969" y="26.318125" width="636.73" height="287.88"/>
  </clipPath>
 </defs>
</svg>