<?xml version="1.0" encoding="utf-8" standalone="no"?>
<!DOCTYPE svg PUBLIC "-//W3C//DTD SVG 1.1//EN"
  "http://www.w3.org/Graphics/SVG/1.1/DTD/svg11.dtd">
<svg xmlns:xlink="http://www.w3.org/1999/xlink" width="568.433125pt" height="280.293281pt" viewBox="0 0 568.433125 280.293281" xmlns="http://www.w3.org/2000/svg" version="1.1">
 <defs><style type="text/css">*{stroke-linejoin: round; stroke-linecap: butt}</style></defs>
 <g id="figure_1">
  <g id="patch_1"><path d="M 0 280.293281 L 568.433125 280.293281 L 568.433125 0 L 0 0 z" style="fill: #ffffff"/></g>
  <g id="axes_1">
   <g id="patch_2"><path d="M 40.603125 256.137031 L 561.233125 256.137031 L 561.233125 21.558281 L 40.603125 21.558281 z" style="fill: #ffffff"/></g>
   <rect x="64.268125" y="32.728698" width="48.543590" height="223.408333" style="fill:#1976d2" clip-path="url(#clip_rat_eb)"/>
   <rect x="124.947612" y="79.272101" width="48.543590" height="176.86493" style="fill:#1976d2" clip-path="url(#clip_rat_eb)"/>
   <rect x="185.627099" y="93.235122" width="48.543590" height="162.901909" style="fill:#1976d2" clip-path="url(#clip_rat_eb)"/>
   <rect x="246.306587" y="153.741545" width="48.543589" height="102.395486" style="fill:#d32f2f" clip-path="url(#clip_rat_eb)"/>
   <rect x="306.986074" y="172.358906" width="48.543589" height="83.778125" style="fill:#1976d2" clip-path="url(#clip_rat_eb)"/>
   <rect x="367.665561" y="181.667587" width="48.543590" height="74.469444" style="fill:#1976d2" clip-path="url(#clip_rat_eb)"/>
   <rect x="428.345048" y="200.284948" width="48.543590" height="55.852083" style="fill:#1976d2" clip-path="url(#clip_rat_eb)"/>
   <rect x="489.024535" y="204.939288" width="48.543590" height="51.197743" style="fill:#1976d2" clip-path="url(#clip_rat_eb)"/>
   <g id="matplotlib.axis_1">
    <text style="font-size:10px;text-anchor:middle" x="88.53992" y="270.735469">SP500</text>
    <text style="font-size:10px;text-anchor:middle" x="149.219407" y="270.735469">EURUSD</text>
    <text style="font-size:10px;text-anchor:middle" x="209.898894" y="270.735469">XAUUSD</text>
    <text style="font-size:10px;text-anchor:middle" x="270.578381" y="270.735469">GBPUSD</text>
    <text style="font-size:10px;text-anchor:middle" x="331.257869" y="270.735469">USDJPY</text>
    <text style="font-size:10px;text-anchor:middle" x="391.937356" y="270.735469">FTSE100</text>
    <text style="font-size:10px;text-anchor:middle" x="452.616843" y="270.735469">XAGUSD</text>
    <text style="font-size:10px;text-anchor:middle" x="513.29633" y="270.735469">WTI_Crude</text>
   </g>
   <g id="matplotlib.axis_2">
    <text style="font-size:10px;text-anchor:end" x="33.603125" y="259.93625">0</text>
    <text style="font-size:10px;text-anchor:end" x="33.603125" y="213.392847">5</text>
    <text style="font-size:10px;text-anchor:end" x="33.603125" y="166.849444">10</text>
    <text style="font-size:10px;text-anchor:end" x="33.603125" y="120.306042">15</text>
    <text style="font-size:10px;text-anchor:end" x="33.603125" y="73.762639">20</text>
    <text style="font-size:10px;text-anchor:end" x="33.603125" y="27.219236">25</text>
    <text style="font-size:10px;text-anchor:middle" x="14.798438" y="138.847656" transform="rotate(-90 14.798438 138.847656)">Exposure (%)</text>
   </g>
   <g id="legend">
    <rect x="500.180781" y="26.058281" width="56.552344" height="29.120625" style="fill:#fff;opacity:.8;stroke:#ccc"/>
    <rect x="503.780781" y="30.196875" width="18" height="6.3" style="fill:#1976d2"/>
    <text style="font-size:9px" x="528.980781" y="36.496875">Long</text>
    <rect x="503.780781" y="43.407187" width="18" height="6.3" style="fill:#d32f2f"/>
    <text style="font-size:9px" x="528.980781" y="49.707187">Short</text>
   </g>
   <text style="font-size:11px;text-anchor:middle" x="300.918125" y="15.558281">Portfolio Exposure by Instrument (Synthetic Demo)</text>
  </g>
 </g>
 <defs><clipPath id="clip_rat_eb"><rect x="40.603125" y="21.558281" width="520.63" height="234.57875"/></clipPath></defs>
</svg>